<?xml version="1.0" encoding="UTF-8" standalone="no"?>
<svg
   xmlns:dc="http://purl.org/dc/elements/1.1/"
   xmlns:cc="http://creativecommons.org/ns#"
   xmlns:rdf="http://www.w3.org/1999/02/22-rdf-syntax-ns#"
   xmlns:svg="http://www.w3.org/2000/svg"
   xmlns="http://www.w3.org/2000/svg"
   xmlns:xlink="http://www.w3.org/1999/xlink"
   xmlns:sodipodi="http://sodipodi.sourceforge.net/DTD/sodipodi-0.dtd"
   xmlns:inkscape="http://www.inkscape.org/namespaces/inkscape"
   inkscape:version="1.0 (4035a4f, 2020-05-01)"
   sodipodi:docname="isolated-layout.svg"
   id="svg3063"
   version="1.1"
   class="icon"
   viewBox="0 0 300 300"
   data-v-fde0c5aa="">
  <metadata
     id="metadata3067">
    <rdf:RDF>
      <cc:Work
         rdf:about="">
        <dc:format>image/svg+xml</dc:format>
        <dc:type
           rdf:resource="http://purl.org/dc/dcmitype/StillImage" />
      </cc:Work>
    </rdf:RDF>
  </metadata>
  <sodipodi:namedview
     inkscape:current-layer="svg3063"
     inkscape:window-maximized="1"
     inkscape:window-y="23"
     inkscape:window-x="0"
     inkscape:cy="150"
     inkscape:cx="150.50083"
     inkscape:zoom="1.9966667"
     showgrid="false"
     id="namedview3065"
     inkscape:window-height="755"
     inkscape:window-width="1280"
     inkscape:pageshadow="2"
     inkscape:pageopacity="0"
     guidetolerance="10"
     gridtolerance="10"
     objecttolerance="10"
     borderopacity="1"
     bordercolor="#666666"
     pagecolor="#ffffff" />
  <!---->
  <defs
     id="defs3049"
     data-v-fde0c5aa="">
    <!---->
    <linearGradient
       gradientUnits="userSpaceOnUse"
       y2="3.8848002"
       x2="99.196368"
       y1="3.8848002"
       x1="28.898871"
       gradientTransform="matrix(0.78066823,0,0,1.2809539,4.1166059e-5,-1.9536876e-4)"
       id="linearGradient3069"
       xlink:href="#7661c478-6e46-423e-9273-58fbbd14c492"
       inkscape:collect="always" />
  </defs>
  <rect
     id="rect3051"
     class="logo-background-square"
     height="300px"
     width="300px"
     y="0"
     x="0"
     fill="#EDF2F3"
     data-v-fde0c5aa="" />
  <!---->
  <defs
     id="defs3058"
     data-v-fde0c5aa="">
    <linearGradient
       y2="0%"
       x2="100%"
       y1="0%"
       x1="0%"
       id="7661c478-6e46-423e-9273-58fbbd14c492"
       gradientTransform="rotate(25)"
       data-v-fde0c5aa="">
      <stop
         id="stop3053"
         stop-opacity="1"
         stop-color="#20484F"
         offset="0%"
         data-v-fde0c5aa="" />
      <stop
         id="stop3055"
         stop-opacity="1"
         stop-color="#4E9BAB"
         offset="100%"
         data-v-fde0c5aa="" />
    </linearGradient>
  </defs>
  <g
     transform="matrix(2.4444451332092285,0,0,2.4444451332092285,27.777783994323052,27.777787491129768)"
     stroke="none"
     fill="url(#7661c478-6e46-423e-9273-58fbbd14c492)"
     id="ad2bc571-b163-49c4-90db-02e54145e094"
     data-v-fde0c5aa="">
    <path
       style="fill:url(#linearGradient3069)"
       id="path3060"
       d="m 33.939494,83.35039 c 0,-0.233399 0.02441,-0.450195 0.0752,-0.649902 -0.180664,0.665039 -0.239258,1.365234 -0.175781,2.099609 0.05664,0.438477 0.148437,0.86377 0.27539,1.275391 -0.0498,-0.173828 -0.0918,-0.348633 -0.125,-0.525391 -0.06641,-0.233398 -0.09961,-0.599609 -0.09961,-1.099609 -0.0332,-0.266602 -0.0166,-0.633789 0.0498,-1.100098 z m 18.75,-12 h -0.0498 l 1.049805,-0.450195 c 0,-0.0332 0.166992,-0.0835 0.5,-0.149903 l 1.099609,-0.100097 c 1,0 1.533203,0.116699 1.600586,0.350097 0.09961,0.266602 -0.350586,0.549805 -1.350586,0.850098 l -1.450195,0.449707 -0.649414,0.350098 h -0.0498 c -0.600586,0.266601 -1,0.633301 -1.200195,1.100097 -0.166992,0.533204 -0.316406,0.883301 -0.450195,1.049805 -0.166993,0.333496 -0.316407,0.5 -0.450196,0.5 -0.09961,-0.0332 -0.166015,-0.233398 -0.200195,-0.599609 -0.06641,-0.366699 -0.08301,-0.783692 -0.0498,-1.25 0.06738,-0.466797 0.216797,-0.850098 0.450196,-1.150391 0.266601,-0.399902 0.666992,-0.716309 1.200195,-0.949707 z m 9.25,-1.25 c 0.06641,0.133301 0.09961,0.383301 0.09961,0.75 -0.09961,0.433105 -0.366211,0.799805 -0.799804,1.100098 -0.233399,0.199707 -0.516602,0.366211 -0.84961,0.5 l -0.850586,0.299804 c -1.166015,0.333496 -1.966797,0.566407 -2.399414,0.700196 -0.700195,0.199707 -1.200195,0.433105 -1.5,0.699707 -0.433594,0.366699 -0.733398,0.916504 -0.90039,1.649902 l -0.150391,0.90039 -0.09961,0.149903 -0.150391,-0.149903 c -0.199219,-0.166992 -0.333008,-0.466796 -0.399414,-0.90039 -0.06641,-0.399902 -0.06641,-0.766602 0,-1.09961 l 0.25,-0.75 c 0.0332,-0.06689 0.216797,-0.316894 0.549805,-0.75 0.433593,-0.466796 1.066406,-0.866699 1.90039,-1.200195 0.399414,-0.133301 1.216797,-0.366699 2.449219,-0.700195 l 0.75,-0.199707 c 0.5,-0.100098 0.800781,-0.266602 0.900391,-0.5 0.133789,-0.200195 0.0166,-0.566895 -0.34961,-1.100098 -0.266601,-0.433594 -0.333984,-0.700195 -0.200195,-0.799805 0.09961,-0.133789 0.382812,-0.05029 0.849609,0.25 0.100586,0.133301 0.299805,0.34961 0.600586,0.649903 l 0.199219,0.199707 z m 3,-3.899902 c -0.100586,0.399902 -0.383789,0.799804 -0.850586,1.199707 -0.366211,0.333496 -0.766602,0.600097 -1.199219,0.800293 l -0.700195,0.199707 c -1.033203,0.266601 -2.25,0.266601 -3.650391,0 -0.733398,-0.166504 -1.333008,-0.399903 -1.799804,-0.699707 -0.299805,-0.166993 -0.5,-0.316895 -0.59961,-0.450196 l -0.05078,-0.149902 0.90039,-0.149902 1.700196,0.149902 c 1.533203,0 2.583008,-0.06689 3.149414,-0.200195 0.06738,0 0.25,-0.0332 0.550781,-0.100098 0.366211,-0.133301 0.699219,-0.283203 1,-0.449707 0.199219,-0.100098 0.5,-0.283691 0.899414,-0.550293 0.333985,-0.233398 0.549805,-0.316406 0.650391,-0.25 0.166992,0.06689 0.166992,0.283691 -10e-7,0.650391 z M 53.338908,31.400195 c -0.0332,-0.0332 -0.75,-0.0166 -2.149414,0.05029 -1.367188,0 -2.833008,0.0498 -4.400391,0.149902 -1.666015,0.06641 -3.066406,0.25 -4.200195,0.549805 l -0.799805,0.149902 -0.599609,0.200195 c -0.333008,0.100098 -0.533203,0.116699 -0.600586,0.04981 0,-0.133301 0.133789,-0.283203 0.400391,-0.449707 l 0.549804,-0.399902 0.799805,-0.350098 c 1.067383,-0.466797 2.517578,-0.816895 4.350586,-1.050293 1.333008,-0.166504 2.816406,-0.283203 4.450195,-0.349609 1.399414,-0.100098 2.149414,-0.13379 2.25,-0.100098 1.432617,-0.03369 3.666016,0.266601 6.699219,0.899902 1.900391,0.466797 3.53418,0.966797 4.900391,1.5 2.367187,0.933594 4.133789,2.083496 5.299804,3.450195 0.733399,0.799805 1.183594,1.5 1.350586,2.09961 l 0.149414,0.40039 c -0.06641,0 -0.182617,-0.100097 -0.349609,-0.300293 -0.900391,-0.899902 -1.466797,-1.449707 -1.700195,-1.649902 -1.366211,-1.200195 -3.116211,-2.133301 -5.25,-2.799805 -1.132813,-0.40039 -2.716797,-0.816894 -4.75,-1.25 -0.766602,-0.133789 -1.5,-0.25 -2.200196,-0.350097 -0.5,0.166504 -1.016601,0.366699 -1.549804,0.600097 -0.632813,0.366211 -1.083008,0.783204 -1.34961,1.25 -0.200195,0.299805 -0.350586,0.666504 -0.450195,1.09961 0,0.133789 -0.0166,0.350097 -0.0498,0.65039 0,0.399903 0.0166,0.633301 0.0498,0.699707 l 0.25,0.75 0.5,0.850098 c 0.566406,1.100098 0.866211,1.866699 0.899414,2.299805 0.133789,0.333496 0.166992,0.666992 0.100586,1 0.200195,0.133789 0.433594,0.316894 0.700195,0.550293 l 0.699219,0.600098 0.850586,1.149902 c 0.09961,0.166504 0.233398,0.449707 0.399414,0.850098 0.233398,0.599609 0.300781,0.949706 0.200195,1.049804 -0.09961,0 -0.382812,-0.200195 -0.849609,-0.600097 l -1.5,-1.5 C 56.0059,42.850392 55.572306,42.58379 55.139689,42.350392 c -0.200195,0.199707 -0.433594,0.399902 -0.700195,0.600098 l -1.049805,0.799804 -2.100586,2.299805 -0.849609,1.400391 -0.799805,1.75 c -0.166992,0.36621 -0.317383,0.716308 -0.450195,1.049804 0.233398,0 0.632812,0.0332 1.200195,0.100098 1.233399,0.166504 2.549805,0.466309 3.949219,0.899902 4.367187,1.433594 7.867187,3.600098 10.5,6.5 1.600586,1.766602 2.817383,3.683594 3.650391,5.75 0.799804,2.166504 1.25,4.133301 1.349609,5.899903 0.100586,1.700195 0.06738,3.149902 -0.09961,4.350097 l -0.299805,1.899903 c -0.666992,3.466796 -1.850586,6.616699 -3.549805,9.450195 -1.600586,2.733398 -3.583984,4.949707 -5.950195,6.649902 -2.066406,1.433594 -4.483399,2.383301 -7.25,2.850098 -2.133789,0.399902 -4.367188,0.516601 -6.700195,0.350098 -1.59961,-0.166993 -2.566407,-0.283692 -2.900391,-0.350098 -1,-0.166504 -1.916016,-0.416504 -2.75,-0.75 -1.533203,-0.666504 -2.866211,-1.550293 -4,-2.649902 -2.066406,-2.033692 -3.149414,-4.166993 -3.25,-6.400391 -0.0332,-1.733398 0.466797,-3.149902 1.5,-4.25 0.466797,-0.433106 1,-0.833008 1.600586,-1.199707 0.599609,-0.166504 0.933594,-0.266602 1,-0.300293 0.666992,-0.166504 1.233398,-0.0498 1.700195,0.350098 l 0.34961,0.25 0.200195,0.350097 c 0.06641,0.0332 0.183594,0.233399 0.349609,0.600098 0.299805,0.699707 0.450196,1.433106 0.450196,2.199707 0.06641,1.033691 0.117187,1.600098 0.15039,1.700195 0.06641,0.533203 0.199219,0.816407 0.399414,0.850098 0.200196,0.06641 0.450196,0.0332 0.75,-0.100098 l 0.600586,-0.350097 c 0.366211,-0.266602 0.583008,-0.399903 0.649414,-0.399903 0,0.06641 -0.182617,0.266602 -0.549804,0.600098 l -0.549805,0.449707 c -0.133789,0.133789 -0.283203,0.216797 -0.450195,0.25 l -0.299805,0.05029 h -0.350586 l -0.299805,-0.200195 -0.25,-0.350098 c -0.132812,-0.199707 -0.233398,-0.449707 -0.299804,-0.75 -0.09961,-0.333008 -0.183594,-0.899902 -0.25,-1.699707 -0.132813,-0.833496 -0.316407,-1.466797 -0.549805,-1.899902 l -0.25,-0.450196 c -0.06641,-0.06641 -0.183594,-0.166503 -0.350586,-0.299804 -0.266602,-0.166992 -0.566406,-0.200196 -0.899414,-0.100098 -0.867188,0.299805 -1.5,0.916504 -1.900391,1.850098 -0.233398,0.599609 -0.349609,1.133301 -0.349609,1.599609 -0.06641,0.266602 -0.06641,0.550293 0,0.850098 v 0.5 l 0.09961,0.450195 c 0.233399,1.199707 0.966797,2.283203 2.200196,3.25 1.166992,0.933106 2.617187,1.583496 4.349609,1.949707 3.633789,0.800293 7.567383,0.116699 11.800781,-2.049805 0.699219,-0.233398 1.833008,-0.933593 3.399414,-2.100097 1,-0.766602 1.883789,-1.649903 2.650391,-2.649903 0.700195,-0.866699 1.416992,-2.1333 2.149414,-3.799804 0.633789,-1.533692 1.017578,-2.900391 1.150391,-4.100098 0.133789,-0.833496 0.117187,-2.100098 -0.0498,-3.800293 -0.100586,-0.966309 -0.299805,-1.816406 -0.600586,-2.549805 -0.333008,-0.566406 -0.482422,-0.866699 -0.449219,-0.899902 0.0332,-0.06689 0.132813,-0.03369 0.299805,0.100098 0.200195,0.133301 0.382812,0.333008 0.549805,0.599609 0.466797,0.666992 0.783203,1.533692 0.950195,2.600098 0.166992,0.600098 0.266602,1.233398 0.299805,1.899902 0.06641,1.066895 0.08301,1.783692 0.0498,2.150391 -0.09961,1.333008 -0.432617,2.833008 -1,4.5 -0.733398,1.799804 -1.466797,3.183105 -2.200195,4.149902 -0.732422,1 -1.699219,1.983398 -2.899414,2.949707 -0.799805,0.633789 -1.633789,1.200195 -2.5,1.700195 -0.700195,0.399903 -1.083008,0.6167 -1.150391,0.649903 -4.533203,2.300293 -8.799804,3 -12.799804,2.100097 -1.966797,-0.466797 -3.616211,-1.25 -4.950196,-2.350097 -0.700195,-0.600098 -1.266601,-1.233399 -1.700195,-1.899903 0.53418,0.933594 1.28418,1.833496 2.25,2.700196 1.166992,1.066406 2.433594,1.833007 3.800781,2.299804 0.766602,0.299805 1.583008,0.5 2.449219,0.600098 0.06738,0.0332 1,0.133301 2.800781,0.299805 2.166016,0.100097 4.283204,-0.0498 6.34961,-0.449707 2.5,-0.433594 4.700195,-1.333496 6.599609,-2.700196 2.133789,-1.566406 3.966797,-3.649902 5.5,-6.25 1.600586,-2.666503 2.733399,-5.6333 3.400391,-8.899902 l 0.25,-1.800293 c 0.200195,-1.266601 0.25,-2.616211 0.15039,-4.049805 -0.0332,-1.6333 -0.433593,-3.450195 -1.200195,-5.450195 -0.799805,-2.066406 -1.90039,-3.866211 -3.299805,-5.399902 -2.333984,-2.733399 -5.617187,-4.933106 -9.850585,-6.600098 -1.09961,-0.433105 -2.34961,-0.849609 -3.75,-1.25 -0.566407,-0.166504 -0.966797,-0.283203 -1.200196,-0.349609 -0.232422,0.699707 -0.416015,1.383301 -0.549804,2.049804 -0.06641,0.333497 -0.132813,0.716797 -0.200196,1.149903 -0.06641,0.300293 -0.132812,0.466797 -0.199219,0.5 -0.100585,0.03369 -0.200195,-0.116699 -0.300781,-0.449707 -0.09961,-0.366699 -0.149414,-0.783692 -0.149414,-1.25 0.0332,-1.033692 0.283203,-2.266602 0.75,-3.700196 0.299805,-1.166503 0.833008,-2.350097 1.599609,-3.549804 0.600586,-0.866699 1,-1.366699 1.200196,-1.5 l 1.15039,-1.150391 1.25,-0.849609 c -0.233398,-0.0669 -0.450195,-0.116699 -0.65039,-0.150391 l -2.299805,-0.599609 c -1.433594,-0.400391 -2.133789,-0.75 -2.100586,-1.050293 0.06738,-0.199707 0.850586,-0.283203 2.350586,-0.25 0.766602,0.06689 1.583008,0.183594 2.450195,0.350097 l 1.049805,0.450196 c -0.0332,-0.0669 -0.0498,-0.133789 -0.0498,-0.200196 -0.0332,-0.299804 -0.25,-0.916503 -0.65039,-1.850097 l -0.5,-0.949707 -0.200196,-0.5 -0.09961,-0.550293 c -0.06641,-0.233399 -0.06641,-0.583496 0,-1.049805 l 0.149414,-0.899902 c 0.133789,-0.433594 0.367188,-0.900391 0.700195,-1.400391 0.5,-0.666504 1.13379,-1.099609 1.900391,-1.299805 0.166992,-0.0332 0.333008,-0.06641 0.5,-0.100097 -1.166992,-0.166504 -2.117188,-0.25 -2.850586,-0.25 z m -27.549805,14.5 c 0.466797,-1.100098 0.783203,-1.6167 0.950196,-1.549805 0.09961,0.0332 0.0332,0.633301 -0.200196,1.799805 -0.299804,1.533691 -0.416015,2.800293 -0.349609,3.800293 0.0332,1.799804 0.683594,3.5 1.950195,5.099609 0.09961,0.133789 0.25,0.333496 0.449219,0.600098 l 0.5,0.550293 c 0.233398,0.233398 0.567383,0.583008 1,1.049804 1.166992,0.933594 1.900391,1.5 2.200195,1.700196 0.233399,0.166504 0.900391,0.616211 2,1.349609 0.766602,0.466797 1.350586,0.883789 1.75,1.25 2.200196,1.966797 3.617188,3.150391 4.25,3.550293 l 1.150391,0.75 0.5,0.199707 c 0.366211,-0.466309 0.816406,-0.933105 1.349609,-1.399902 -0.132812,-0.0332 -0.266601,-0.06641 -0.399414,-0.100098 -1.100586,-0.266601 -1.966797,-1 -2.600586,-2.199707 -0.299804,-0.633301 -0.416015,-1.25 -0.349609,-1.850098 0.0332,-0.466796 0.149414,-0.866699 0.349609,-1.200195 0.200196,-0.333008 0.383789,-0.466308 0.549805,-0.399902 0.133789,0.06689 0.216797,0.266601 0.25,0.600098 0.03418,0.200195 0.08398,0.516601 0.150391,0.950195 0.06641,0.399902 0.216796,0.799805 0.450195,1.199707 0.366211,0.766601 0.916992,1.316894 1.649414,1.649902 0.333984,0.166992 0.683594,0.300293 1.050781,0.400391 0.59961,-0.433594 0.966797,-0.550293 1.09961,-0.350098 0.06641,0.100098 0,0.283203 -0.200196,0.549805 l -0.09961,0.149902 c -0.0332,0.03369 -0.06641,0.0835 -0.100586,0.150391 -0.366211,0.433105 -0.666016,0.799804 -0.899414,1.099609 -0.966797,1.166992 -1.533203,2.116699 -1.700195,2.850098 v 0.100097 c -0.0332,0.133301 -0.0498,0.350098 -0.0498,0.649903 0,0.219238 0.132812,0.568847 0.399414,1.050293 0.100586,-0.566895 0.183594,-0.900391 0.25,-1 l 0.350586,-0.700196 c 0.09961,-0.166504 0.283203,-0.399902 0.549805,-0.700195 0.466797,-0.433105 1.099609,-0.883301 1.90039,-1.349609 1.333008,-0.766602 2.132813,-1.266602 2.399414,-1.5 0.367188,-0.333496 0.650391,-0.733399 0.850586,-1.200196 l 0.14941,-0.600097 -0.299804,-0.850098 c 0.0332,-0.0332 -0.116211,-0.383301 -0.450196,-1.049805 -0.432617,-0.733398 -0.899414,-1.450195 -1.399414,-2.149902 -0.100586,-0.133301 -0.583984,-0.850098 -1.450195,-2.149902 -0.433594,-0.666993 -0.617188,-1.033692 -0.549805,-1.100098 0.132813,-0.100098 0.516602,0.0835 1.149414,0.549805 0.633789,0.5 1.266602,1.1333 1.900391,1.899902 0.533203,0.666992 1.066406,1.416992 1.599609,2.25 0.433594,0.666992 0.650391,1.050293 0.650391,1.150391 l 0.399414,1.25 -0.0498,0.799804 -0.200195,0.600098 c -0.299805,0.666504 -0.766602,1.25 -1.399414,1.75 -0.233398,0.133301 -0.466797,0.299805 -0.700195,0.5 h 0.200195 c 0.166992,0.0332 0.950195,0.116699 2.349609,0.25 l -0.09961,-0.5 0.0498,-0.550293 c 0.09961,-0.699707 0.40039,-1.449707 0.90039,-2.25 0.09961,-0.166504 0.399414,-0.516602 0.899414,-1.049805 0.633789,-0.766601 1.299805,-1.350097 2,-1.75 0.933594,-0.600097 1.75,-1.016601 2.450196,-1.25 0.833007,-0.233398 1.25,-0.233398 1.25,0 0.0332,0.100098 -0.283203,0.350098 -0.950196,0.75 l -1.950195,1.450196 c -0.599609,0.5 -1.182617,1.083007 -1.75,1.75 -0.432617,0.566406 -0.649414,0.8833 -0.649414,0.949707 -0.766602,1.200195 -0.916992,2.149902 -0.450195,2.850097 0.333007,0.600098 0.933593,1.149903 1.799804,1.649903 0.600586,0.266601 1.233399,0.483398 1.900391,0.649902 0.399414,0.06689 0.882812,0.15039 1.450195,0.25 1,0.166992 1.533203,0.300293 1.59961,0.40039 -0.06641,0.133301 -0.616211,0.25 -1.650391,0.34961 -1.46582,0.100098 -2.732422,-0.0498 -3.799805,-0.449707 -1.099609,-0.366699 -1.966797,-1.066895 -2.599609,-2.100098 -0.0332,-0.0332 -0.0498,-0.0835 -0.0498,-0.149902 -0.666992,0.399902 -1.633789,0.483398 -2.90039,0.25 -0.866211,-0.166504 -1.450196,-0.366699 -1.75,-0.600098 -0.09961,0.0332 -0.183594,0.06641 -0.25,0.100098 -1.433594,0.699707 -2.34961,1.350098 -2.75,1.949707 -0.166993,0.366699 -0.299805,0.616699 -0.400391,0.75 l -0.149414,0.450195 -0.0498,0.100098 0.59961,1.25 c 0,0.06641 0.0166,0.116699 0.0498,0.149902 0,-0.0332 0.0166,-0.0835 0.0498,-0.149902 l 0.25,-0.5 c 0.5,-0.733399 0.850586,-1.183594 1.050781,-1.350098 0.199219,-0.133301 0.366211,-0.183594 0.5,-0.149902 l 0.25,0.399902 c 0.166016,0.566406 0,1.200195 -0.5,1.899902 l -0.600586,0.550293 c -0.09961,0.06641 -0.182617,0.116211 -0.25,0.149903 0.200196,0.133301 0.416993,0.183105 0.650391,0.149902 0.466797,0 0.916992,-0.216797 1.349609,-0.649902 0.299805,-0.300293 0.533204,-0.616699 0.700196,-0.950196 0.166992,-0.299804 0.200195,-0.6333 0.09961,-1 l -0.09961,-0.199707 0.25,0.04981 c 0.133789,0.0332 0.266601,0.166504 0.40039,0.399902 0.132813,0.300293 0.166016,0.6167 0.09961,0.950196 -0.06641,0.5 -0.283203,0.983398 -0.650391,1.449707 -0.533203,0.766601 -1.21582,1.200195 -2.049805,1.300293 -0.599609,0.06641 -1.132812,-0.0835 -1.599609,-0.450196 C 43.2559,73.633593 42.856486,73.200487 42.489299,72.60039 42.322307,72.400194 42.172892,72.133593 42.039103,71.800097 L 41.639689,71.10039 c -0.466797,-0.966797 -0.716797,-1.666504 -0.75,-2.100098 -0.0332,-0.366699 0.0166,-0.766602 0.149414,-1.200195 v 0.05029 c 0.13379,-0.5 0.367188,-1 0.700196,-1.5 l -0.5,-0.100098 c -0.59961,-0.166504 -1.049805,-0.333496 -1.34961,-0.5 -0.166992,-0.06641 -0.383789,-0.166504 -0.65039,-0.299805 0,0.09961 -0.150391,0.266602 -0.450196,0.5 -0.399414,0.233399 -0.716796,0.433106 -0.950195,0.59961 -0.132812,0.100097 -0.266601,0.233398 -0.399414,0.40039 0.09961,0.06641 0.200195,0.149903 0.299805,0.25 l 0.450195,0.5 c 0.533203,0.766602 0.833008,1.266602 0.899414,1.5 0.06738,0.233399 0.08398,0.399903 0.05078,0.5 -0.100585,0.133301 -0.25,0.183106 -0.450195,0.149903 -0.566406,-0.100098 -1.100586,-0.450196 -1.600586,-1.050293 0,0.100097 0.01758,0.216797 0.05078,0.350097 0.0332,0.5 0.132812,0.883301 0.299804,1.149903 0.132813,0.333496 0.466797,0.533691 1,0.600097 0.466797,0.100098 0.733399,0.200196 0.799805,0.300293 l -0.09961,0.149903 c -0.166993,0.1333 -0.38379,0.233398 -0.650391,0.299804 -0.400391,0.0669 -0.683594,0.0835 -0.849609,0.05029 -0.466797,0.06641 -0.900391,-0.15039 -1.300782,-0.65039 -0.299804,-0.366211 -0.533203,-0.899903 -0.699219,-1.59961 l -0.15039,-1 c -0.0332,-0.333496 0,-0.75 0.09961,-1.25 l 0.350586,-0.800293 c 0.333008,-0.433105 0.766602,-0.75 1.299805,-0.949707 0.466797,-0.200195 0.933594,-0.300293 1.40039,-0.300293 0.06641,0 0.116211,0 0.149415,0 -0.866211,-0.533203 -2.066407,-1.399902 -3.59961,-2.600097 -0.299805,-0.233399 -0.850586,-0.59961 -1.65039,-1.09961 -0.899415,-0.5 -1.59961,-0.933594 -2.09961,-1.300293 -0.433594,-0.233398 -1.216797,-0.816406 -2.350586,-1.75 l -2.25,-2.5 c -0.366211,-0.433105 -0.71582,-1.016601 -1.049804,-1.75 -0.632813,-1.299804 -0.932618,-2.699707 -0.899415,-4.199707 0.0332,-1.366699 0.333008,-2.716796 0.899414,-4.050292 z M 52.939494,8.0500976 c 1,-0.2998047 2.399414,-0.6333008 4.200195,-1 l 3.59961,-0.7998047 c 4.533203,-0.9667969 8.083007,-1.3833008 10.65039,-1.25 1,0 2.049805,0.1665039 3.149414,0.5 0.266602,0.1333008 0.617188,0.2998047 1.049805,0.5 l 0.75,0.5 c 0.200195,0.1665039 0.433594,0.4833984 0.700195,0.9501953 l 0.400391,0.7998047 -0.200195,-0.25 c -0.266602,-0.4667969 -0.632813,-0.8833008 -1.09961,-1.25 l -0.75,-0.3999023 c -0.433594,-0.1665039 -0.766601,-0.300293 -1,-0.3999023 -1.067383,-0.2001953 -2.067383,-0.2836914 -3,-0.25 -0.766601,0 -1.65039,0.066406 -2.65039,0.199707 -0.266602,0.1000977 -0.516602,0.2333984 -0.75,0.3999023 -1.533204,1 -2.799805,2.5 -3.799805,4.4999994 l -0.5,1 -0.75,2.150391 0.09961,0.449707 0.549805,1.550293 c 0.900391,-0.100098 1.800781,-0.133789 2.700195,-0.100098 0.900391,0.06641 1.733399,0.166504 2.5,0.299805 l 2.100586,0.5 c 1.033203,0.333496 1.966797,0.866699 2.799805,1.600097 0.533203,0.433594 0.983398,0.899903 1.349609,1.399903 0.200196,0.233398 0.416992,0.5 0.650391,0.800293 l 0.299805,0.449707 c -0.06641,0 -0.216797,-0.0835 -0.450196,-0.25 -0.700195,-0.600098 -1.466797,-1.216309 -2.299804,-1.850098 -0.966797,-0.566406 -1.866211,-0.949707 -2.700196,-1.149902 -0.833008,-0.133301 -1.466797,-0.25 -1.899414,-0.350098 l -2.40039,-0.09961 c -0.799805,0 -1.650391,0.0498 -2.549805,0.149902 v 0.0498 c -0.100586,0.200195 -0.266602,0.3833 -0.5,0.550293 -0.133789,0.09961 -0.433594,0.25 -0.900391,0.449707 l -1.700195,0.600097 c -0.799805,0.299805 -1.299805,0.516602 -1.5,0.649903 l -0.399414,0.350097 c -0.100586,0.133301 -0.383789,0.483399 -0.850586,1.049805 -1.033203,1.600098 -1.599609,2.850098 -1.699219,3.75 -0.166992,1.133789 0.216797,2.383789 1.149414,3.75 l 0.850586,1.150391 c 0.199219,0.266601 0.283203,0.449707 0.25,0.549804 -0.0332,0.0332 -0.216797,-0.0498 -0.550781,-0.25 l -0.549806,-0.350091 -0.649414,-0.600098 c -0.567383,-0.59961 -0.983398,-1.183106 -1.25,-1.75 -0.0332,-0.06641 -0.183594,-0.483399 -0.450195,-1.25 l -0.100586,-1.34961 c 0.06738,-0.633789 0.15039,-1.066894 0.25,-1.300293 l 0.40039,-1.199707 c 0.166993,-0.366699 0.533204,-1.033691 1.09961,-2 0.466797,-0.666992 0.966797,-1.216796 1.5,-1.65039 -1.46582,0.466797 -3.25,1.15039 -5.34961,2.050293 -2.632812,1.033203 -5.033203,2.216308 -7.200195,3.549805 -1.766601,1.066894 -3.099609,2.166503 -4,3.300293 -0.333008,0.36621 -0.682617,0.816406 -1.049805,1.349609 -0.233398,0.366699 -0.382812,0.533691 -0.450195,0.5 -0.09961,0 -0.08301,-0.216309 0.0498,-0.649902 0.166992,-0.533204 0.433594,-1.100098 0.800781,-1.699707 0.833008,-1.3667 2.149414,-2.650391 3.949219,-3.850098 2.233398,-1.533691 4.666992,-2.833496 7.300781,-3.899902 3.299805,-1.433594 5.899414,-2.350098 7.799805,-2.75 0.700195,-0.166993 1.399414,-0.283692 2.099609,-0.350098 l -0.450195,-1.399902 c -0.09961,-0.433594 -0.132812,-0.75 -0.09961,-0.950196 0.200195,-0.733398 0.349609,-1.200195 0.450195,-1.399902 0.166992,-0.433594 0.549805,-1.166504 1.149414,-2.200195 1,-1.7666013 2.183594,-3.0834958 3.550781,-3.9497067 -1.666986,0.2666016 -3.550775,0.6499023 -5.650384,1.1499023 l -3.650391,0.7998047 c -2.166015,0.5668945 -3.482422,0.9501953 -3.949219,1.1499023 -1.666992,0.6669922 -3.033203,1.3837884 -4.100586,2.1503904 -1.233398,0.833007 -2.549804,1.949707 -3.950195,3.349609 -2.632812,2.700195 -4.766601,6.100098 -6.399414,10.200195 l -0.950195,3.25 c -0.299805,1.433594 -0.382813,2.533203 -0.25,3.299805 0.166992,1.066894 0.766601,1.883789 1.799804,2.450195 0.400391,0.233399 0.966797,0.483399 1.700196,0.75 l 1.950195,0.700196 c 0.06641,0.0332 0.683594,0.349609 1.849609,0.949707 0.766602,0.5 1.350586,1.016601 1.75,1.550293 0.63379,0.86621 0.900391,1.833007 0.799805,2.899902 -0.0332,1.100098 -0.299805,2.183105 -0.799805,3.25 -0.432617,1 -1.233398,1.916504 -2.399414,2.75 l -2.700195,2.100098 c -0.933594,1.233398 -1.700195,2.166503 -2.299805,2.799804 -0.533203,0.633301 -1.050781,1.066407 -1.550781,1.299805 -0.699219,0.333496 -1.399414,0.466797 -2.099609,0.400391 -0.866211,-0.0669 -1.5,-0.183594 -1.900391,-0.350098 -0.732422,-0.233399 -1.283203,-0.633301 -1.649414,-1.200195 -0.400391,-0.566407 -0.566406,-1.199707 -0.5,-1.899903 0.06641,-0.600097 0.200195,-1.166504 0.399414,-1.700195 0.367188,-0.833008 0.916992,-1.716309 1.650391,-2.649902 1.133789,-1.299805 2.333007,-2.183106 3.599609,-2.649903 0.433594,-0.1333 0.833984,-0.200195 1.200195,-0.200195 -0.06641,-0.06641 -0.116211,-0.133301 -0.149414,-0.199707 -0.333984,-0.533691 -1.033203,-0.883301 -2.100586,-1.050293 -0.09961,-0.0332 -0.216797,-0.04981 -0.349609,-0.04981 -0.06641,0.266602 -0.350586,0.6167 -0.850586,1.049805 -0.699219,0.5 -1.349609,0.75 -1.949219,0.75 l -0.450195,-0.199707 c 0,-0.03369 0,-0.0835 0,-0.149902 0,-0.100098 0.0332,-0.216797 0.09961,-0.350098 0.133789,-0.300293 0.533203,-0.683594 1.200196,-1.149902 -0.132813,0 -0.25,0 -0.34961,0 -0.833984,0.06641 -1.266601,0.116211 -1.300781,0.149902 l -1.149414,0.25 c -0.566406,0.133301 -0.916992,0.25 -1.049805,0.350098 -0.333984,0.133301 -0.90039,0.466308 -1.700195,1 -0.966797,0.633301 -1.5,0.966308 -1.600586,1 -0.599609,0.333008 -1.149414,0.549805 -1.649414,0.649902 -0.400391,0.0332 -0.716797,0.0332 -0.950195,0 -0.09961,0 -0.25,-0.05029 -0.450196,-0.149902 l -0.299804,-0.25 c -0.333008,-0.266602 -0.583008,-0.616699 -0.75,-1.050293 -0.166993,-0.366699 -0.216797,-0.733399 -0.150391,-1.100098 0.03418,-0.366211 0.166992,-0.633301 0.400391,-0.799805 l 0.25,-0.200195 0.15039,0.100098 c 0.399414,0.333496 0.649414,0.75 0.75,1.25 v 0.25 l -0.200195,-0.199707 c -0.100586,-0.200195 -0.266602,-0.366699 -0.5,-0.5 -0.0332,0.233398 0.0332,0.483398 0.200195,0.75 0.199219,0.333008 0.366211,0.533203 0.5,0.599609 0.166016,0.100098 0.266602,0.133789 0.299805,0.100098 0.06641,0.03369 0.216797,0.0166 0.450195,-0.0498 0.5,-0.133301 1.399414,-0.666504 2.699219,-1.600097 0.966797,-0.666504 1.600586,-1.066407 1.900391,-1.200196 0.299804,-0.166504 0.716796,-0.316406 1.25,-0.449707 l 1.349609,-0.300293 c 0.06738,0 0.567383,-0.0332 1.5,-0.09961 1.100586,-0.03369 2.100586,0.08301 3,0.349609 0.53418,0.100098 1.067383,0.333496 1.600586,0.700196 0.433594,0.366699 0.733398,0.783203 0.899414,1.25 0.166992,0.466796 0.183594,0.816406 0.05078,1.049804 -0.100586,0.266602 -0.183594,0.400391 -0.25,0.400391 -0.06738,0 -0.117187,-0.133789 -0.15039,-0.400391 -0.0332,-0.133301 -0.06641,-0.25 -0.09961,-0.349609 -0.333984,0.09961 -0.700195,0.266601 -1.100586,0.5 -1.099609,0.566406 -2.166015,1.483398 -3.200195,2.75 -0.599609,0.799805 -1.049805,1.616211 -1.349609,2.449707 -0.400391,1.166504 -0.366211,2.050293 0.09961,2.649902 0.433594,0.633789 1.333984,0.950195 2.700195,0.950195 1,0.0332 1.900391,-0.416503 2.700196,-1.350097 0.166992,-0.233399 0.516601,-0.683106 1.049804,-1.350098 0.466797,-0.666504 0.867188,-1.183105 1.200196,-1.549805 l 2.849609,-2.299804 c 0.867188,-0.600098 1.483398,-1.333496 1.850586,-2.200196 0.366211,-0.833496 0.583008,-1.733398 0.649414,-2.700195 0.06738,-1.299805 -0.549805,-2.333008 -1.849609,-3.099609 -1.033203,-0.5 -1.583008,-0.766602 -1.650391,-0.800293 -1.732422,-0.566407 -3.016602,-1.100098 -3.849609,-1.600098 -0.733399,-0.466309 -1.283203,-0.933106 -1.650391,-1.399902 -0.5,-0.600098 -0.799805,-1.283203 -0.899414,-2.049805 -0.200196,-1.100097 -0.100587,-2.416503 0.299804,-3.950194 l 1.099609,-3.449707 c 1.633789,-4.166993 3.883789,-7.716797 6.75,-10.650391 1.433594,-1.433105 2.850586,-2.599609 4.25,-3.5 1.166992,-0.766601 2.617187,-1.516601 4.350586,-2.2499994 z"
       clip-rule="evenodd" />
  </g>
  <!---->
</svg>
